<svg width="257" height="255" viewBox="0 0 257 255" fill="none" xmlns="http://www.w3.org/2000/svg">
<g opacity="0.48" filter="url(#filter0_i_319_8936)">
<path d="M141.43 94.3267H114.836L101.539 51.1111H128.133L141.43 94.3267Z" fill="#188AEC"/>
</g>
<g filter="url(#filter1_i_319_8936)">
<path d="M114.844 94.3236H141.438L168.032 41.1353H141.438L114.844 94.3236Z" fill="#188AEC"/>
</g>
<path d="M168.026 41.1354L181.323 67.7295H168.026H154.729L168.026 41.1354Z" fill="url(#paint0_linear_319_8936)"/>
<path d="M114.836 94.3219L128.133 67.7277H114.836H106.525L114.836 94.3219Z" fill="url(#paint1_linear_319_8936)"/>
<g filter="url(#filter2_i_319_8936)">
<path d="M74.9512 104.299H101.545L128.139 51.111H101.545L74.9512 104.299Z" fill="#188AEC"/>
</g>
<path d="M73.2872 107.619H99.8813L96.557 114.268H69.9629L73.2872 107.619Z" fill="#FAAD14"/>
<path d="M156.393 71.051H182.986L186.309 77.6996H159.715L156.393 71.051Z" fill="#FAAD14"/>
<g filter="url(#filter3_i_319_8936)">
<path d="M114.832 97.6432H141.426L154.723 140.858H128.129L114.832 97.6432Z" fill="#B4CFE7"/>
</g>
<g filter="url(#filter4_i_319_8936)">
<path d="M141.427 97.6432H114.832L88.2383 150.831H114.832L141.427 97.6432Z" fill="#7FB8E9"/>
</g>
<path d="M88.2365 150.835L74.9395 124.241H88.2365H101.534L88.2365 150.835Z" fill="url(#paint2_linear_319_8936)"/>
<path d="M141.428 97.649L128.131 124.243H141.428H149.738L141.428 97.649Z" fill="url(#paint3_linear_319_8936)"/>
<g filter="url(#filter5_i_319_8936)">
<path d="M181.317 87.6735H154.723L128.129 140.862H154.723L181.317 87.6735Z" fill="#7FB8E9"/>
</g>
<path d="M182.981 84.3518H156.387L159.711 77.7034H186.305L182.981 84.3518Z" fill="#E2C57C"/>
<path d="M99.8788 120.914H73.2859L69.9629 114.266H96.5559L99.8788 120.914Z" fill="#E2C57C"/>
<path d="M43.0402 187.925L28.8053 207.588L14.5519 187.925H14.2196V218.426H20.2016V205.465L28.7868 217.928H28.8238L37.3906 205.465V218.426H43.3726V187.925H43.0402ZM66.5066 194.554V188.664H48.5607V218.426H66.5066V212.481H54.5427V206.333H64.8081V200.369H54.5427V194.554H66.5066ZM87.5544 188.664V200.572H76.8644V188.664H70.9008V218.426H76.8644V206.499H87.5544V218.426H93.5179V188.664H87.5544ZM121.489 218.426L113.033 206.591C116.227 205.465 118.535 202.123 118.535 198.302C118.535 192.947 113.975 188.664 108.418 188.664H98.706L98.7245 218.426H104.706V204.357L114.178 218.426H121.489ZM104.688 194.59H108.528C110.541 194.59 112.369 196.215 112.369 198.338C112.369 200.462 110.559 202.105 108.528 202.086L104.688 202.068V194.59Z" fill="#188AEC"/>
<path d="M144.291 218.426H150.772L136.537 187.925H136.352L122.136 218.426H128.598L130.499 214.272H142.408L144.291 218.426ZM132.826 209.176L136.463 201.219L140.081 209.176H132.826ZM182.583 187.925L168.348 207.588L154.095 187.925H153.763V218.426H159.745V205.465L168.33 217.928H168.367L176.934 205.465V218.426H182.916V187.925H182.583ZM208.062 218.426H214.543L200.308 187.925H200.123L185.907 218.426H192.369L194.27 214.272H206.179L208.062 218.426ZM196.597 209.176L200.234 201.219L203.853 209.176H196.597ZM235.461 188.59V205.262L217.829 188.11H217.534V218.463H223.516V201.791L241.185 218.98H241.462V188.59H235.461Z" fill="#FAAD14"/>
<defs>
<filter id="filter0_i_319_8936" x="101.539" y="51.1111" width="43.2149" height="46.5398" filterUnits="userSpaceOnUse" color-interpolation-filters="sRGB">
<feFlood flood-opacity="0" result="BackgroundImageFix"/>
<feBlend mode="normal" in="SourceGraphic" in2="BackgroundImageFix" result="shape"/>
<feColorMatrix in="SourceAlpha" type="matrix" values="0 0 0 0 0 0 0 0 0 0 0 0 0 0 0 0 0 0 127 0" result="hardAlpha"/>
<feOffset dx="3.32427" dy="3.32427"/>
<feGaussianBlur stdDeviation="3.32427"/>
<feComposite in2="hardAlpha" operator="arithmetic" k2="-1" k3="1"/>
<feColorMatrix type="matrix" values="0 0 0 0 0.615686 0 0 0 0 0.619608 0 0 0 0 0.635294 0 0 0 0.58 0"/>
<feBlend mode="normal" in2="shape" result="effect1_innerShadow_319_8936"/>
</filter>
<filter id="filter1_i_319_8936" x="114.844" y="41.1353" width="54.8496" height="54.8505" filterUnits="userSpaceOnUse" color-interpolation-filters="sRGB">
<feFlood flood-opacity="0" result="BackgroundImageFix"/>
<feBlend mode="normal" in="SourceGraphic" in2="BackgroundImageFix" result="shape"/>
<feColorMatrix in="SourceAlpha" type="matrix" values="0 0 0 0 0 0 0 0 0 0 0 0 0 0 0 0 0 0 127 0" result="hardAlpha"/>
<feOffset dx="1.66213" dy="1.66213"/>
<feGaussianBlur stdDeviation="1.66213"/>
<feComposite in2="hardAlpha" operator="arithmetic" k2="-1" k3="1"/>
<feColorMatrix type="matrix" values="0 0 0 0 0 0 0 0 0 0.447059 0 0 0 0 0.831373 0 0 0 0.22 0"/>
<feBlend mode="normal" in2="shape" result="effect1_innerShadow_319_8936"/>
</filter>
<filter id="filter2_i_319_8936" x="74.9512" y="51.111" width="54.8496" height="54.8502" filterUnits="userSpaceOnUse" color-interpolation-filters="sRGB">
<feFlood flood-opacity="0" result="BackgroundImageFix"/>
<feBlend mode="normal" in="SourceGraphic" in2="BackgroundImageFix" result="shape"/>
<feColorMatrix in="SourceAlpha" type="matrix" values="0 0 0 0 0 0 0 0 0 0 0 0 0 0 0 0 0 0 127 0" result="hardAlpha"/>
<feOffset dx="1.66213" dy="1.66213"/>
<feGaussianBlur stdDeviation="1.66213"/>
<feComposite in2="hardAlpha" operator="arithmetic" k2="-1" k3="1"/>
<feColorMatrix type="matrix" values="0 0 0 0 0 0 0 0 0 0.447059 0 0 0 0 0.831373 0 0 0 0.22 0"/>
<feBlend mode="normal" in2="shape" result="effect1_innerShadow_319_8936"/>
</filter>
<filter id="filter3_i_319_8936" x="114.832" y="97.6432" width="43.2149" height="46.5395" filterUnits="userSpaceOnUse" color-interpolation-filters="sRGB">
<feFlood flood-opacity="0" result="BackgroundImageFix"/>
<feBlend mode="normal" in="SourceGraphic" in2="BackgroundImageFix" result="shape"/>
<feColorMatrix in="SourceAlpha" type="matrix" values="0 0 0 0 0 0 0 0 0 0 0 0 0 0 0 0 0 0 127 0" result="hardAlpha"/>
<feOffset dx="3.32427" dy="3.32427"/>
<feGaussianBlur stdDeviation="3.32427"/>
<feComposite in2="hardAlpha" operator="arithmetic" k2="-1" k3="1"/>
<feColorMatrix type="matrix" values="0 0 0 0 0.615686 0 0 0 0 0.619608 0 0 0 0 0.635294 0 0 0 0.58 0"/>
<feBlend mode="normal" in2="shape" result="effect1_innerShadow_319_8936"/>
</filter>
<filter id="filter4_i_319_8936" x="88.2383" y="97.6432" width="54.8496" height="54.8504" filterUnits="userSpaceOnUse" color-interpolation-filters="sRGB">
<feFlood flood-opacity="0" result="BackgroundImageFix"/>
<feBlend mode="normal" in="SourceGraphic" in2="BackgroundImageFix" result="shape"/>
<feColorMatrix in="SourceAlpha" type="matrix" values="0 0 0 0 0 0 0 0 0 0 0 0 0 0 0 0 0 0 127 0" result="hardAlpha"/>
<feOffset dx="1.66213" dy="1.66213"/>
<feGaussianBlur stdDeviation="1.66213"/>
<feComposite in2="hardAlpha" operator="arithmetic" k2="-1" k3="1"/>
<feColorMatrix type="matrix" values="0 0 0 0 0 0 0 0 0 0.447059 0 0 0 0 0.831373 0 0 0 0.22 0"/>
<feBlend mode="normal" in2="shape" result="effect1_innerShadow_319_8936"/>
</filter>
<filter id="filter5_i_319_8936" x="128.129" y="87.6735" width="54.8496" height="54.8504" filterUnits="userSpaceOnUse" color-interpolation-filters="sRGB">
<feFlood flood-opacity="0" result="BackgroundImageFix"/>
<feBlend mode="normal" in="SourceGraphic" in2="BackgroundImageFix" result="shape"/>
<feColorMatrix in="SourceAlpha" type="matrix" values="0 0 0 0 0 0 0 0 0 0 0 0 0 0 0 0 0 0 127 0" result="hardAlpha"/>
<feOffset dx="1.66213" dy="1.66213"/>
<feGaussianBlur stdDeviation="1.66213"/>
<feComposite in2="hardAlpha" operator="arithmetic" k2="-1" k3="1"/>
<feColorMatrix type="matrix" values="0 0 0 0 0 0 0 0 0 0.447059 0 0 0 0 0.831373 0 0 0 0.22 0"/>
<feBlend mode="normal" in2="shape" result="effect1_innerShadow_319_8936"/>
</filter>
<linearGradient id="paint0_linear_319_8936" x1="161.377" y1="54.4324" x2="179.661" y2="66.0673" gradientUnits="userSpaceOnUse">
<stop stop-color="#0C5A9C"/>
<stop offset="1" stop-color="#188AEC"/>
</linearGradient>
<linearGradient id="paint1_linear_319_8936" x1="119.823" y1="82.6868" x2="128.588" y2="62.7396" gradientUnits="userSpaceOnUse">
<stop stop-color="#0C5A9C"/>
<stop offset="1" stop-color="#188AEC"/>
</linearGradient>
<linearGradient id="paint2_linear_319_8936" x1="85.819" y1="137.538" x2="72.5299" y2="131.256" gradientUnits="userSpaceOnUse">
<stop stop-color="#799FC1"/>
<stop offset="1" stop-color="#7DAFDB"/>
</linearGradient>
<linearGradient id="paint3_linear_319_8936" x1="136.971" y1="110.946" x2="125.458" y2="115.368" gradientUnits="userSpaceOnUse">
<stop stop-color="#799FC1"/>
<stop offset="1" stop-color="#7DAFDB"/>
</linearGradient>
</defs>
</svg>
